<svg xmlns="http://www.w3.org/2000/svg" viewBox="0 0 120 80" role="img" aria-label="Uriel Salud Integral">
  <path d="M5,40 C24,7 96,7 115,40 C96,73 24,73 5,40 Z" fill="#ED8403"/>
  <circle cx="47" cy="40" r="27" fill="#33A5A2"/>
  <path d="M47,20
           c-6,0 -10.5,4 -10.5,9.5
           c0,3.3 1.2,5.6 1.2,9
           c0,4.4 -2.4,6.8 -2.4,11.3
           c0,3.6 2.3,6.2 5,6.2
           c2.6,0 3.7,-3.3 3.7,-7
           c0,-2.3 1.1,-3.7 3,-3.7
           c1.9,0 3,1.4 3,3.7
           c0,3.7 1.1,7 3.7,7
           c2.7,0 5,-2.6 5,-6.2
           c0,-4.5 -2.4,-6.9 -2.4,-11.3
           c0,-3.4 1.2,-5.7 1.2,-9
           c0,-5.5 -4.5,-9.5 -10.5,-9.5
           z" fill="#FFFFFF"/>
</svg>
